<svg xmlns="http://www.w3.org/2000/svg" version="1.1" xmlns:xlink="http://www.w3.org/1999/xlink" xmlns:svgjs="http://svgjs.com/svgjs" width="25" height="25" x="0" y="0" viewBox="0 0 512 512" style="enable-background:new 0 0 512 512" xml:space="preserve" class=""><g><path d="M376 136.001c-17.648 0-32-14.352-32-32 0-4.424-3.576-8-8-8H80c-4.424 0-8 3.576-8 8 0 17.648-14.352 32-32 32-4.424 0-8 3.576-8 8v64c0 4.424 3.576 8 8 8 17.648 0 32 14.352 32 32 0 4.424 3.576 8 8 8h256c4.424 0 8-3.576 8-8 0-17.648 14.352-32 32-32 4.424 0 8-3.576 8-8v-64c0-4.424-3.576-8-8-8zm-8 64.664c-20.072 3.384-35.952 19.264-39.336 39.336H87.336C83.952 219.929 68.072 204.049 48 200.665v-49.328c20.072-3.384 35.952-19.264 39.336-39.336h241.328c3.384 20.072 19.264 35.952 39.336 39.336v49.328z" fill="#000000" data-original="#000000" class=""></path><path d="M208 136.001c-22.056 0-40 17.944-40 40s17.944 40 40 40 40-17.944 40-40-17.944-40-40-40zm0 64c-13.232 0-24-10.768-24-24s10.768-24 24-24 24 10.768 24 24-10.768 24-24 24z" fill="#000000" data-original="#000000" class=""></path><path d="M472 .001H72c-4.424 0-8 3.576-8 8v24H40c-4.424 0-8 3.576-8 8v24H8c-4.424 0-8 3.576-8 8v208c0 4.424 3.576 8 8 8h400c4.424 0 8-3.576 8-8v-24h24c4.424 0 8-3.576 8-8v-24h24c4.424 0 8-3.576 8-8v-208c0-4.424-3.576-8-8-8zm-72 248v24H16v-192h384v168zm32-8h-16v-168c0-4.424-3.576-8-8-8H48v-16h384v192zm32-32h-16v-168c0-4.424-3.576-8-8-8H80v-16h384v192zM476.8 385.609l-96-72.008c-2.416-1.832-5.672-2.112-8.376-.76a8.009 8.009 0 0 0-4.424 7.16v32H240c-4.424 0-8 3.576-8 8v64c0 4.424 3.576 8 8 8h128v40c0 3.104 1.8 5.928 4.608 7.24 1.08.512 2.232.76 3.392.76a8.06 8.06 0 0 0 5.128-1.848l96-80a8.016 8.016 0 0 0 2.872-6.352 7.981 7.981 0 0 0-3.2-6.192zM384 454.921v-30.92c0-4.424-3.576-8-8-8H248v-48h128c4.424 0 8-3.576 8-8v-24l75.112 56.328L384 454.921zM208 352.001h-32c-4.424 0-8 3.576-8 8v64c0 4.424 3.576 8 8 8h32c4.424 0 8-3.576 8-8v-64c0-4.424-3.576-8-8-8zm-8 64h-16v-48h16v48zM128 352.001H96c-4.424 0-8 3.576-8 8v64c0 4.424 3.576 8 8 8h32c4.424 0 8-3.576 8-8v-64c0-4.424-3.576-8-8-8zm-8 64h-16v-48h16v48zM40 352.001H8c-4.424 0-8 3.576-8 8v64c0 4.424 3.576 8 8 8h32c4.424 0 8-3.576 8-8v-64c0-4.424-3.576-8-8-8zm-8 64H16v-48h16v48z" fill="#000000" data-original="#000000" class=""></path></g></svg>